<?xml version="1.0" encoding="utf-8"?><!DOCTYPE svg PUBLIC "-//W3C//DTD SVG 1.1//EN" "http://www.w3.org/Graphics/SVG/1.1/DTD/svg11.dtd"><svg version="1.1" xmlns="http://www.w3.org/2000/svg" xmlns:xlink="http://www.w3.org/1999/xlink" width="24" height="24" viewBox="0 0 24 24" data-tags="film"><g fill="#444" transform="scale(0.0234375 0.0234375)"><path d="M341.333 341.333v298.667h341.333v-298.667h-341.333zM640 597.333h-256v-213.333h256v213.333z" /><path d="M725.333 85.333h-128v85.333h-170.667v-85.333h-128c-70.571 0-128 57.429-128 128v554.667c0 70.571 57.429 128 128 128h128v-85.333h170.667v85.333h128c70.571 0 128-57.429 128-128v-554.667c0-70.571-57.429-128-128-128zM768 256c-23.595 0-42.667 19.072-42.667 42.667s19.072 42.667 42.667 42.667v42.667c-23.595 0-42.667 19.072-42.667 42.667s19.072 42.667 42.667 42.667v42.667c-23.595 0-42.667 19.072-42.667 42.667s19.072 42.667 42.667 42.667v42.667c-23.595 0-42.667 19.072-42.667 42.667s19.072 42.667 42.667 42.667v42.667c0 23.509-19.115 42.667-42.667 42.667h-42.667v-85.333h-341.333v85.333h-42.667c-23.552 0-42.667-19.157-42.667-42.667v-42.667c23.595 0 42.667-19.072 42.667-42.667s-19.072-42.667-42.667-42.667v-42.667c23.595 0 42.667-19.072 42.667-42.667s-19.072-42.667-42.667-42.667v-42.667c23.595 0 42.667-19.072 42.667-42.667s-19.072-42.667-42.667-42.667v-42.667c23.595 0 42.667-19.072 42.667-42.667s-19.072-42.667-42.667-42.667v-42.667c0-23.509 19.115-42.667 42.667-42.667h42.667v85.333h341.333v-85.333h42.667c23.552 0 42.667 19.157 42.667 42.667v42.667z" /></g></svg>